<mxfile host="www.draw.io" modified="2019-12-03T18:40:08.875Z" agent="Mozilla/5.0 (Windows NT 10.0; Win64; x64) AppleWebKit/537.36 (KHTML, like Gecko) Chrome/77.0.3865.90 Safari/537.36" etag="N6r12_rEajE6psEc4nAe" version="12.3.6" type="github" pages="1">
  <diagram id="sSwxEBlxweJauDJ_B-Bg" name="Page-1">
    <mxGraphModel dx="1408" dy="722" grid="1" gridSize="10" guides="1" tooltips="1" connect="1" arrows="1" fold="1" page="1" pageScale="1" pageWidth="1100" pageHeight="850" math="0" shadow="0">
      <root>
        <mxCell id="0"/>
        <mxCell id="1" parent="0"/>
        <mxCell id="rAfZPr0wQPsl_4nHrJfM-8" style="edgeStyle=orthogonalEdgeStyle;rounded=0;orthogonalLoop=1;jettySize=auto;html=1;entryX=1;entryY=0.75;entryDx=0;entryDy=0;endArrow=none;endFill=0;" parent="1" source="rAfZPr0wQPsl_4nHrJfM-1" target="rAfZPr0wQPsl_4nHrJfM-6" edge="1">
          <mxGeometry relative="1" as="geometry">
            <mxPoint x="190" y="60" as="targetPoint"/>
          </mxGeometry>
        </mxCell>
        <mxCell id="rAfZPr0wQPsl_4nHrJfM-1" value="Employee" style="swimlane;fontStyle=1;align=center;verticalAlign=top;childLayout=stackLayout;horizontal=1;startSize=26;horizontalStack=0;resizeParent=1;resizeParentMax=0;resizeLast=0;collapsible=1;marginBottom=0;" parent="1" vertex="1">
          <mxGeometry x="351" y="24" width="160" height="112" as="geometry"/>
        </mxCell>
        <mxCell id="rAfZPr0wQPsl_4nHrJfM-2" value="name" style="text;strokeColor=none;fillColor=none;align=left;verticalAlign=top;spacingLeft=4;spacingRight=4;overflow=hidden;rotatable=0;points=[[0,0.5],[1,0.5]];portConstraint=eastwest;" parent="rAfZPr0wQPsl_4nHrJfM-1" vertex="1">
          <mxGeometry y="26" width="160" height="26" as="geometry"/>
        </mxCell>
        <mxCell id="rAfZPr0wQPsl_4nHrJfM-3" value="" style="line;strokeWidth=1;fillColor=none;align=left;verticalAlign=middle;spacingTop=-1;spacingLeft=3;spacingRight=3;rotatable=0;labelPosition=right;points=[];portConstraint=eastwest;" parent="rAfZPr0wQPsl_4nHrJfM-1" vertex="1">
          <mxGeometry y="52" width="160" height="8" as="geometry"/>
        </mxCell>
        <mxCell id="rAfZPr0wQPsl_4nHrJfM-4" value="mobile" style="text;strokeColor=none;fillColor=none;align=left;verticalAlign=top;spacingLeft=4;spacingRight=4;overflow=hidden;rotatable=0;points=[[0,0.5],[1,0.5]];portConstraint=eastwest;" parent="rAfZPr0wQPsl_4nHrJfM-1" vertex="1">
          <mxGeometry y="60" width="160" height="26" as="geometry"/>
        </mxCell>
        <mxCell id="rAfZPr0wQPsl_4nHrJfM-5" value="employee_no" style="text;strokeColor=#000000;fillColor=none;align=left;verticalAlign=top;spacingLeft=4;spacingRight=4;overflow=hidden;rotatable=0;points=[[0,0.5],[1,0.5]];portConstraint=eastwest;" parent="rAfZPr0wQPsl_4nHrJfM-1" vertex="1">
          <mxGeometry y="86" width="160" height="26" as="geometry"/>
        </mxCell>
        <mxCell id="rAfZPr0wQPsl_4nHrJfM-6" value="Emergency Central" style="swimlane;fontStyle=0;childLayout=stackLayout;horizontal=1;startSize=26;fillColor=none;horizontalStack=0;resizeParent=1;resizeParentMax=0;resizeLast=0;collapsible=1;marginBottom=0;strokeColor=#000000;" parent="1" vertex="1">
          <mxGeometry x="40" y="41" width="140" height="52" as="geometry"/>
        </mxCell>
        <mxCell id="rAfZPr0wQPsl_4nHrJfM-9" value="Employed By" style="text;html=1;align=center;verticalAlign=middle;resizable=0;points=[];;autosize=1;" parent="1" vertex="1">
          <mxGeometry x="232" y="37" width="90" height="20" as="geometry"/>
        </mxCell>
        <mxCell id="rAfZPr0wQPsl_4nHrJfM-10" value="1..*" style="text;html=1;align=center;verticalAlign=middle;resizable=0;points=[];;autosize=1;" parent="1" vertex="1">
          <mxGeometry x="316" y="57" width="30" height="20" as="geometry"/>
        </mxCell>
        <mxCell id="rAfZPr0wQPsl_4nHrJfM-16" value="1..1" style="text;html=1;align=center;verticalAlign=middle;resizable=0;points=[];;autosize=1;" parent="1" vertex="1">
          <mxGeometry x="181" y="57" width="40" height="20" as="geometry"/>
        </mxCell>
        <mxCell id="rAfZPr0wQPsl_4nHrJfM-23" style="edgeStyle=orthogonalEdgeStyle;rounded=0;orthogonalLoop=1;jettySize=auto;html=1;endArrow=block;endFill=0;" parent="1" source="rAfZPr0wQPsl_4nHrJfM-17" edge="1">
          <mxGeometry relative="1" as="geometry">
            <mxPoint x="350" y="97" as="targetPoint"/>
            <Array as="points">
              <mxPoint x="110" y="130"/>
              <mxPoint x="310" y="130"/>
              <mxPoint x="310" y="97"/>
            </Array>
          </mxGeometry>
        </mxCell>
        <mxCell id="rAfZPr0wQPsl_4nHrJfM-49" style="edgeStyle=orthogonalEdgeStyle;rounded=0;orthogonalLoop=1;jettySize=auto;html=1;exitX=0.75;exitY=1;exitDx=0;exitDy=0;entryX=0;entryY=0.5;entryDx=0;entryDy=0;endArrow=none;endFill=0;" parent="1" source="rAfZPr0wQPsl_4nHrJfM-17" edge="1">
          <mxGeometry relative="1" as="geometry">
            <mxPoint x="109.88235294117658" y="261.82352941176464" as="sourcePoint"/>
            <mxPoint x="354.5882352941178" y="687.3529411764707" as="targetPoint"/>
            <Array as="points">
              <mxPoint x="145" y="261"/>
              <mxPoint x="160" y="261"/>
              <mxPoint x="160" y="681"/>
              <mxPoint x="290" y="681"/>
              <mxPoint x="290" y="687"/>
            </Array>
          </mxGeometry>
        </mxCell>
        <mxCell id="rAfZPr0wQPsl_4nHrJfM-54" value="0..*" style="text;html=1;align=center;verticalAlign=middle;resizable=0;points=[];;labelBackgroundColor=#ffffff;" parent="rAfZPr0wQPsl_4nHrJfM-49" vertex="1" connectable="0">
          <mxGeometry x="0.8425" y="8" relative="1" as="geometry">
            <mxPoint x="11" y="-4" as="offset"/>
          </mxGeometry>
        </mxCell>
        <mxCell id="rAfZPr0wQPsl_4nHrJfM-60" style="edgeStyle=orthogonalEdgeStyle;rounded=0;orthogonalLoop=1;jettySize=auto;html=1;exitX=0.5;exitY=1;exitDx=0;exitDy=0;entryX=0.03;entryY=0.247;entryDx=0;entryDy=0;entryPerimeter=0;endArrow=none;endFill=0;" parent="1" source="rAfZPr0wQPsl_4nHrJfM-17" target="rAfZPr0wQPsl_4nHrJfM-59" edge="1">
          <mxGeometry relative="1" as="geometry"/>
        </mxCell>
        <mxCell id="rAfZPr0wQPsl_4nHrJfM-17" value="Physician" style="swimlane;fontStyle=0;childLayout=stackLayout;horizontal=1;startSize=26;fillColor=none;horizontalStack=0;resizeParent=1;resizeParentMax=0;resizeLast=0;collapsible=1;marginBottom=0;strokeColor=#000000;" parent="1" vertex="1">
          <mxGeometry x="40" y="200" width="140" height="52" as="geometry"/>
        </mxCell>
        <mxCell id="rAfZPr0wQPsl_4nHrJfM-21" style="edgeStyle=orthogonalEdgeStyle;rounded=0;orthogonalLoop=1;jettySize=auto;html=1;endArrow=block;endFill=0;entryX=0.119;entryY=1;entryDx=0;entryDy=0;entryPerimeter=0;" parent="1" source="rAfZPr0wQPsl_4nHrJfM-18" target="rAfZPr0wQPsl_4nHrJfM-5" edge="1">
          <mxGeometry relative="1" as="geometry">
            <mxPoint x="370" y="150" as="targetPoint"/>
          </mxGeometry>
        </mxCell>
        <mxCell id="rAfZPr0wQPsl_4nHrJfM-26" style="edgeStyle=orthogonalEdgeStyle;rounded=0;orthogonalLoop=1;jettySize=auto;html=1;exitX=0.5;exitY=1;exitDx=0;exitDy=0;entryX=0.5;entryY=0;entryDx=0;entryDy=0;endArrow=none;endFill=0;" parent="1" edge="1">
          <mxGeometry relative="1" as="geometry">
            <mxPoint x="366.8823529411766" y="260.0588235294117" as="sourcePoint"/>
            <mxPoint x="366.8823529411766" y="351.82352941176464" as="targetPoint"/>
          </mxGeometry>
        </mxCell>
        <mxCell id="rAfZPr0wQPsl_4nHrJfM-48" style="edgeStyle=orthogonalEdgeStyle;rounded=0;orthogonalLoop=1;jettySize=auto;html=1;exitX=1;exitY=0.75;exitDx=0;exitDy=0;entryX=0.75;entryY=0;entryDx=0;entryDy=0;endArrow=none;endFill=0;" parent="1" source="rAfZPr0wQPsl_4nHrJfM-55" edge="1">
          <mxGeometry relative="1" as="geometry">
            <mxPoint x="447.47058823529414" y="247.11764705882365" as="sourcePoint"/>
            <mxPoint x="467.47058823529414" y="669.4705882352941" as="targetPoint"/>
          </mxGeometry>
        </mxCell>
        <mxCell id="rAfZPr0wQPsl_4nHrJfM-67" style="edgeStyle=orthogonalEdgeStyle;rounded=0;orthogonalLoop=1;jettySize=auto;html=1;exitX=1;exitY=0.25;exitDx=0;exitDy=0;entryX=0.25;entryY=0;entryDx=0;entryDy=0;endArrow=none;endFill=0;" parent="1" source="rAfZPr0wQPsl_4nHrJfM-18" target="rAfZPr0wQPsl_4nHrJfM-66" edge="1">
          <mxGeometry relative="1" as="geometry"/>
        </mxCell>
        <mxCell id="rAfZPr0wQPsl_4nHrJfM-68" value="Document" style="text;html=1;align=center;verticalAlign=middle;resizable=0;points=[];;labelBackgroundColor=#ffffff;rotation=90;" parent="rAfZPr0wQPsl_4nHrJfM-67" vertex="1" connectable="0">
          <mxGeometry x="0.3962" relative="1" as="geometry">
            <mxPoint x="12" y="-24" as="offset"/>
          </mxGeometry>
        </mxCell>
        <mxCell id="rAfZPr0wQPsl_4nHrJfM-18" value="Nurse" style="swimlane;fontStyle=0;childLayout=stackLayout;horizontal=1;startSize=26;fillColor=none;horizontalStack=0;resizeParent=1;resizeParentMax=0;resizeLast=0;collapsible=1;marginBottom=0;strokeColor=#000000;" parent="1" vertex="1">
          <mxGeometry x="300" y="208" width="140" height="52" as="geometry"/>
        </mxCell>
        <mxCell id="rAfZPr0wQPsl_4nHrJfM-22" style="edgeStyle=orthogonalEdgeStyle;rounded=0;orthogonalLoop=1;jettySize=auto;html=1;exitX=0.5;exitY=0;exitDx=0;exitDy=0;entryX=0.981;entryY=-0.269;entryDx=0;entryDy=0;endArrow=block;endFill=0;entryPerimeter=0;" parent="1" source="rAfZPr0wQPsl_4nHrJfM-19" target="rAfZPr0wQPsl_4nHrJfM-4" edge="1">
          <mxGeometry relative="1" as="geometry"/>
        </mxCell>
        <mxCell id="rAfZPr0wQPsl_4nHrJfM-19" value="Prescribing Physician" style="swimlane;fontStyle=0;childLayout=stackLayout;horizontal=1;startSize=26;fillColor=none;horizontalStack=0;resizeParent=1;resizeParentMax=0;resizeLast=0;collapsible=1;marginBottom=0;strokeColor=#000000;" parent="1" vertex="1">
          <mxGeometry x="680" y="200" width="140" height="52" as="geometry"/>
        </mxCell>
        <mxCell id="rAfZPr0wQPsl_4nHrJfM-20" value="expert_area" style="text;strokeColor=none;fillColor=none;align=left;verticalAlign=top;spacingLeft=4;spacingRight=4;overflow=hidden;rotatable=0;points=[[0,0.5],[1,0.5]];portConstraint=eastwest;" parent="rAfZPr0wQPsl_4nHrJfM-19" vertex="1">
          <mxGeometry y="26" width="140" height="26" as="geometry"/>
        </mxCell>
        <mxCell id="rAfZPr0wQPsl_4nHrJfM-24" value="Registration" style="swimlane;fontStyle=0;childLayout=stackLayout;horizontal=1;startSize=26;fillColor=none;horizontalStack=0;resizeParent=1;resizeParentMax=0;resizeLast=0;collapsible=1;marginBottom=0;" parent="1" vertex="1">
          <mxGeometry x="300" y="352" width="140" height="52" as="geometry"/>
        </mxCell>
        <mxCell id="rAfZPr0wQPsl_4nHrJfM-25" value="date" style="text;strokeColor=none;fillColor=none;align=left;verticalAlign=top;spacingLeft=4;spacingRight=4;overflow=hidden;rotatable=0;points=[[0,0.5],[1,0.5]];portConstraint=eastwest;" parent="rAfZPr0wQPsl_4nHrJfM-24" vertex="1">
          <mxGeometry y="26" width="140" height="26" as="geometry"/>
        </mxCell>
        <mxCell id="rAfZPr0wQPsl_4nHrJfM-31" style="edgeStyle=orthogonalEdgeStyle;rounded=0;orthogonalLoop=1;jettySize=auto;html=1;entryX=0.491;entryY=1.029;entryDx=0;entryDy=0;entryPerimeter=0;endArrow=none;endFill=0;" parent="1" source="rAfZPr0wQPsl_4nHrJfM-39" target="rAfZPr0wQPsl_4nHrJfM-25" edge="1">
          <mxGeometry relative="1" as="geometry"/>
        </mxCell>
        <mxCell id="rAfZPr0wQPsl_4nHrJfM-27" value="Patient" style="swimlane;fontStyle=0;childLayout=stackLayout;horizontal=1;startSize=26;fillColor=none;horizontalStack=0;resizeParent=1;resizeParentMax=0;resizeLast=0;collapsible=1;marginBottom=0;" parent="1" vertex="1">
          <mxGeometry x="299" y="489.5" width="140" height="80" as="geometry"/>
        </mxCell>
        <mxCell id="rAfZPr0wQPsl_4nHrJfM-28" value="name" style="text;strokeColor=none;fillColor=none;align=left;verticalAlign=top;spacingLeft=4;spacingRight=4;overflow=hidden;rotatable=0;points=[[0,0.5],[1,0.5]];portConstraint=eastwest;" parent="rAfZPr0wQPsl_4nHrJfM-27" vertex="1">
          <mxGeometry y="26" width="140" height="26" as="geometry"/>
        </mxCell>
        <mxCell id="rAfZPr0wQPsl_4nHrJfM-29" value="national_id" style="text;strokeColor=#000000;fillColor=none;align=left;verticalAlign=top;spacingLeft=4;spacingRight=4;overflow=hidden;rotatable=0;points=[[0,0.5],[1,0.5]];portConstraint=eastwest;" parent="rAfZPr0wQPsl_4nHrJfM-27" vertex="1">
          <mxGeometry y="52" width="140" height="28" as="geometry"/>
        </mxCell>
        <mxCell id="rAfZPr0wQPsl_4nHrJfM-32" value="Makes Registration" style="text;html=1;align=center;verticalAlign=middle;resizable=0;points=[];;autosize=1;" parent="1" vertex="1">
          <mxGeometry x="316" y="294" width="120" height="20" as="geometry"/>
        </mxCell>
        <mxCell id="rAfZPr0wQPsl_4nHrJfM-35" value="1..1" style="text;html=1;align=center;verticalAlign=middle;resizable=0;points=[];;autosize=1;" parent="1" vertex="1">
          <mxGeometry x="370" y="326" width="40" height="20" as="geometry"/>
        </mxCell>
        <mxCell id="rAfZPr0wQPsl_4nHrJfM-36" value="1..1" style="text;html=1;align=center;verticalAlign=middle;resizable=0;points=[];;autosize=1;" parent="1" vertex="1">
          <mxGeometry x="370" y="265" width="40" height="20" as="geometry"/>
        </mxCell>
        <mxCell id="rAfZPr0wQPsl_4nHrJfM-39" value="Concerns" style="text;html=1;align=center;verticalAlign=middle;resizable=0;points=[];;autosize=1;" parent="1" vertex="1">
          <mxGeometry x="335" y="436.5" width="70" height="20" as="geometry"/>
        </mxCell>
        <mxCell id="rAfZPr0wQPsl_4nHrJfM-43" style="edgeStyle=orthogonalEdgeStyle;rounded=0;orthogonalLoop=1;jettySize=auto;html=1;entryX=0.491;entryY=1.029;entryDx=0;entryDy=0;entryPerimeter=0;endArrow=none;endFill=0;" parent="1" source="rAfZPr0wQPsl_4nHrJfM-27" target="rAfZPr0wQPsl_4nHrJfM-39" edge="1">
          <mxGeometry relative="1" as="geometry">
            <mxPoint x="368.7058823529412" y="489.4999999999998" as="sourcePoint"/>
            <mxPoint x="368.7058823529412" y="404.7647058823529" as="targetPoint"/>
          </mxGeometry>
        </mxCell>
        <mxCell id="rAfZPr0wQPsl_4nHrJfM-44" value="1..1" style="text;html=1;align=center;verticalAlign=middle;resizable=0;points=[];;autosize=1;" parent="1" vertex="1">
          <mxGeometry x="370" y="410" width="40" height="20" as="geometry"/>
        </mxCell>
        <mxCell id="rAfZPr0wQPsl_4nHrJfM-45" value="1..1" style="text;html=1;align=center;verticalAlign=middle;resizable=0;points=[];;autosize=1;" parent="1" vertex="1">
          <mxGeometry x="373" y="463" width="40" height="20" as="geometry"/>
        </mxCell>
        <mxCell id="rAfZPr0wQPsl_4nHrJfM-51" style="edgeStyle=orthogonalEdgeStyle;rounded=0;orthogonalLoop=1;jettySize=auto;html=1;exitX=0.25;exitY=0;exitDx=0;exitDy=0;endArrow=none;endFill=0;" parent="1" source="rAfZPr0wQPsl_4nHrJfM-46" target="rAfZPr0wQPsl_4nHrJfM-29" edge="1">
          <mxGeometry relative="1" as="geometry">
            <Array as="points">
              <mxPoint x="410" y="610"/>
            </Array>
          </mxGeometry>
        </mxCell>
        <mxCell id="rAfZPr0wQPsl_4nHrJfM-53" value="0..*" style="text;html=1;align=center;verticalAlign=middle;resizable=0;points=[];;labelBackgroundColor=#ffffff;" parent="rAfZPr0wQPsl_4nHrJfM-51" vertex="1" connectable="0">
          <mxGeometry x="0.0225" y="-34" relative="1" as="geometry">
            <mxPoint x="13" y="9" as="offset"/>
          </mxGeometry>
        </mxCell>
        <mxCell id="rAfZPr0wQPsl_4nHrJfM-46" value="Assessment" style="swimlane;fontStyle=0;childLayout=stackLayout;horizontal=1;startSize=26;fillColor=none;horizontalStack=0;resizeParent=1;resizeParentMax=0;resizeLast=0;collapsible=1;marginBottom=0;" parent="1" vertex="1">
          <mxGeometry x="355" y="669" width="140" height="52" as="geometry"/>
        </mxCell>
        <mxCell id="rAfZPr0wQPsl_4nHrJfM-47" value="room" style="text;strokeColor=none;fillColor=none;align=left;verticalAlign=top;spacingLeft=4;spacingRight=4;overflow=hidden;rotatable=0;points=[[0,0.5],[1,0.5]];portConstraint=eastwest;" parent="rAfZPr0wQPsl_4nHrJfM-46" vertex="1">
          <mxGeometry y="26" width="140" height="26" as="geometry"/>
        </mxCell>
        <mxCell id="rAfZPr0wQPsl_4nHrJfM-52" value="0..*" style="text;html=1;align=center;verticalAlign=middle;resizable=0;points=[];;autosize=1;" parent="1" vertex="1">
          <mxGeometry x="474" y="641" width="30" height="20" as="geometry"/>
        </mxCell>
        <mxCell id="rAfZPr0wQPsl_4nHrJfM-130" value="1..1" style="text;html=1;align=center;verticalAlign=middle;resizable=0;points=[];;autosize=1;" parent="1" vertex="1">
          <mxGeometry x="589" y="641" width="40" height="20" as="geometry"/>
        </mxCell>
        <mxCell id="rAfZPr0wQPsl_4nHrJfM-56" value="1..1" style="text;html=1;align=center;verticalAlign=middle;resizable=0;points=[];;autosize=1;" parent="1" vertex="1">
          <mxGeometry x="416" y="580" width="40" height="20" as="geometry"/>
        </mxCell>
        <mxCell id="rAfZPr0wQPsl_4nHrJfM-57" value="1..1" style="text;html=1;align=center;verticalAlign=middle;resizable=0;points=[];;autosize=1;" parent="1" vertex="1">
          <mxGeometry x="166" y="265" width="40" height="20" as="geometry"/>
        </mxCell>
        <mxCell id="rAfZPr0wQPsl_4nHrJfM-58" value="Referral" style="swimlane;fontStyle=0;childLayout=stackLayout;horizontal=1;startSize=26;fillColor=none;horizontalStack=0;resizeParent=1;resizeParentMax=0;resizeLast=0;collapsible=1;marginBottom=0;" parent="1" vertex="1">
          <mxGeometry x="241" y="750" width="140" height="52" as="geometry"/>
        </mxCell>
        <mxCell id="rAfZPr0wQPsl_4nHrJfM-59" value="describe_health_issues" style="text;strokeColor=none;fillColor=none;align=left;verticalAlign=top;spacingLeft=4;spacingRight=4;overflow=hidden;rotatable=0;points=[[0,0.5],[1,0.5]];portConstraint=eastwest;" parent="rAfZPr0wQPsl_4nHrJfM-58" vertex="1">
          <mxGeometry y="26" width="140" height="26" as="geometry"/>
        </mxCell>
        <mxCell id="rAfZPr0wQPsl_4nHrJfM-61" value="1.1" style="text;html=1;align=center;verticalAlign=middle;resizable=0;points=[];;autosize=1;" parent="1" vertex="1">
          <mxGeometry x="65" y="260" width="30" height="20" as="geometry"/>
        </mxCell>
        <mxCell id="rAfZPr0wQPsl_4nHrJfM-62" value="0..*" style="text;html=1;align=center;verticalAlign=middle;resizable=0;points=[];;autosize=1;" parent="1" vertex="1">
          <mxGeometry x="189" y="754" width="30" height="20" as="geometry"/>
        </mxCell>
        <mxCell id="rAfZPr0wQPsl_4nHrJfM-63" value="Health center" style="swimlane;fontStyle=0;childLayout=stackLayout;horizontal=1;startSize=26;fillColor=none;horizontalStack=0;resizeParent=1;resizeParentMax=0;resizeLast=0;collapsible=1;marginBottom=0;" parent="1" vertex="1">
          <mxGeometry x="489" y="750" width="140" height="78" as="geometry"/>
        </mxCell>
        <mxCell id="rAfZPr0wQPsl_4nHrJfM-64" value="name" style="text;strokeColor=none;fillColor=none;align=left;verticalAlign=top;spacingLeft=4;spacingRight=4;overflow=hidden;rotatable=0;points=[[0,0.5],[1,0.5]];portConstraint=eastwest;" parent="rAfZPr0wQPsl_4nHrJfM-63" vertex="1">
          <mxGeometry y="26" width="140" height="26" as="geometry"/>
        </mxCell>
        <mxCell id="rAfZPr0wQPsl_4nHrJfM-65" value="address" style="text;strokeColor=#000000;fillColor=none;align=left;verticalAlign=top;spacingLeft=4;spacingRight=4;overflow=hidden;rotatable=0;points=[[0,0.5],[1,0.5]];portConstraint=eastwest;" parent="rAfZPr0wQPsl_4nHrJfM-63" vertex="1">
          <mxGeometry y="52" width="140" height="26" as="geometry"/>
        </mxCell>
        <mxCell id="rAfZPr0wQPsl_4nHrJfM-71" style="edgeStyle=orthogonalEdgeStyle;rounded=0;orthogonalLoop=1;jettySize=auto;html=1;exitX=0;exitY=0.25;exitDx=0;exitDy=0;entryX=1;entryY=0.5;entryDx=0;entryDy=0;endArrow=none;endFill=0;" parent="1" source="rAfZPr0wQPsl_4nHrJfM-74" target="rAfZPr0wQPsl_4nHrJfM-25" edge="1">
          <mxGeometry relative="1" as="geometry">
            <Array as="points"/>
          </mxGeometry>
        </mxCell>
        <mxCell id="rAfZPr0wQPsl_4nHrJfM-86" style="edgeStyle=orthogonalEdgeStyle;rounded=0;orthogonalLoop=1;jettySize=auto;html=1;exitX=0.75;exitY=1;exitDx=0;exitDy=0;entryX=1;entryY=0.5;entryDx=0;entryDy=0;endArrow=none;endFill=0;" parent="1" source="rAfZPr0wQPsl_4nHrJfM-66" target="rAfZPr0wQPsl_4nHrJfM-64" edge="1">
          <mxGeometry relative="1" as="geometry">
            <mxPoint x="681.5882352941176" y="541.2352941176471" as="sourcePoint"/>
            <mxPoint x="654.5294117647059" y="749.4705882352941" as="targetPoint"/>
          </mxGeometry>
        </mxCell>
        <mxCell id="rAfZPr0wQPsl_4nHrJfM-66" value="Medical Record" style="swimlane;fontStyle=0;childLayout=stackLayout;horizontal=1;startSize=26;fillColor=none;horizontalStack=0;resizeParent=1;resizeParentMax=0;resizeLast=0;collapsible=1;marginBottom=0;" parent="1" vertex="1">
          <mxGeometry x="565" y="489.5" width="140" height="52" as="geometry"/>
        </mxCell>
        <mxCell id="rAfZPr0wQPsl_4nHrJfM-69" style="edgeStyle=orthogonalEdgeStyle;rounded=0;orthogonalLoop=1;jettySize=auto;html=1;endArrow=none;endFill=0;entryX=0.25;entryY=1;entryDx=0;entryDy=0;" parent="1" source="rAfZPr0wQPsl_4nHrJfM-47" target="rAfZPr0wQPsl_4nHrJfM-66" edge="1">
          <mxGeometry relative="1" as="geometry">
            <mxPoint x="540" y="550" as="targetPoint"/>
          </mxGeometry>
        </mxCell>
        <mxCell id="rAfZPr0wQPsl_4nHrJfM-70" value="Notes" style="text;html=1;align=center;verticalAlign=middle;resizable=0;points=[];;labelBackgroundColor=#ffffff;rotation=90;" parent="rAfZPr0wQPsl_4nHrJfM-69" vertex="1" connectable="0">
          <mxGeometry x="0.3698" y="-11" relative="1" as="geometry">
            <mxPoint x="1" y="-15.5" as="offset"/>
          </mxGeometry>
        </mxCell>
        <mxCell id="rAfZPr0wQPsl_4nHrJfM-72" value="Attends" style="text;html=1;align=center;verticalAlign=middle;resizable=0;points=[];;autosize=1;" parent="1" vertex="1">
          <mxGeometry x="458" y="446.5" width="60" height="20" as="geometry"/>
        </mxCell>
        <mxCell id="rAfZPr0wQPsl_4nHrJfM-76" value="1..1" style="text;html=1;align=center;verticalAlign=middle;resizable=0;points=[];;autosize=1;" parent="1" vertex="1">
          <mxGeometry x="521" y="482" width="40" height="20" as="geometry"/>
        </mxCell>
        <mxCell id="rAfZPr0wQPsl_4nHrJfM-74" value="1..*" style="text;html=1;align=center;verticalAlign=middle;resizable=0;points=[];;autosize=1;" parent="1" vertex="1">
          <mxGeometry x="438" y="368" width="30" height="20" as="geometry"/>
        </mxCell>
        <mxCell id="rAfZPr0wQPsl_4nHrJfM-78" style="edgeStyle=orthogonalEdgeStyle;rounded=0;orthogonalLoop=1;jettySize=auto;html=1;exitX=0;exitY=0.25;exitDx=0;exitDy=0;entryX=0.043;entryY=1.426;entryDx=0;entryDy=0;endArrow=none;endFill=0;entryPerimeter=0;" parent="1" source="rAfZPr0wQPsl_4nHrJfM-66" target="rAfZPr0wQPsl_4nHrJfM-74" edge="1">
          <mxGeometry relative="1" as="geometry">
            <mxPoint x="545.1764705882351" y="502.41176470588243" as="sourcePoint"/>
            <mxPoint x="440.47058823529414" y="390.6470588235295" as="targetPoint"/>
            <Array as="points">
              <mxPoint x="520" y="502"/>
              <mxPoint x="520" y="391"/>
              <mxPoint x="439" y="391"/>
            </Array>
          </mxGeometry>
        </mxCell>
        <mxCell id="rAfZPr0wQPsl_4nHrJfM-122" value="Records" style="text;html=1;align=center;verticalAlign=middle;resizable=0;points=[];;labelBackgroundColor=#ffffff;rotation=90;" parent="rAfZPr0wQPsl_4nHrJfM-78" vertex="1" connectable="0">
          <mxGeometry x="0.0145" y="-1" relative="1" as="geometry">
            <mxPoint x="15" y="-14" as="offset"/>
          </mxGeometry>
        </mxCell>
        <mxCell id="rAfZPr0wQPsl_4nHrJfM-79" value="0..*" style="text;html=1;align=center;verticalAlign=middle;resizable=0;points=[];;autosize=1;" parent="1" vertex="1">
          <mxGeometry x="506" y="685" width="30" height="20" as="geometry"/>
        </mxCell>
        <mxCell id="rAfZPr0wQPsl_4nHrJfM-80" value="1..1" style="text;html=1;align=center;verticalAlign=middle;resizable=0;points=[];;autosize=1;" parent="1" vertex="1">
          <mxGeometry x="600" y="549.5" width="40" height="20" as="geometry"/>
        </mxCell>
        <mxCell id="rAfZPr0wQPsl_4nHrJfM-55" value="1..1" style="text;html=1;align=center;verticalAlign=middle;resizable=0;points=[];;autosize=1;" parent="1" vertex="1">
          <mxGeometry x="438" y="229" width="40" height="20" as="geometry"/>
        </mxCell>
        <mxCell id="rAfZPr0wQPsl_4nHrJfM-84" value="1..*" style="text;html=1;align=center;verticalAlign=middle;resizable=0;points=[];;autosize=1;" parent="1" vertex="1">
          <mxGeometry x="454" y="198" width="30" height="20" as="geometry"/>
        </mxCell>
        <mxCell id="rAfZPr0wQPsl_4nHrJfM-85" value="1..1" style="text;html=1;align=center;verticalAlign=middle;resizable=0;points=[];;autosize=1;" parent="1" vertex="1">
          <mxGeometry x="604" y="461" width="40" height="20" as="geometry"/>
        </mxCell>
        <mxCell id="rAfZPr0wQPsl_4nHrJfM-87" style="edgeStyle=orthogonalEdgeStyle;rounded=0;orthogonalLoop=1;jettySize=auto;html=1;entryX=0;entryY=0.5;entryDx=0;entryDy=0;endArrow=none;endFill=0;" parent="1" source="rAfZPr0wQPsl_4nHrJfM-59" target="rAfZPr0wQPsl_4nHrJfM-64" edge="1">
          <mxGeometry relative="1" as="geometry"/>
        </mxCell>
        <mxCell id="rAfZPr0wQPsl_4nHrJfM-88" value="0..*" style="text;html=1;align=center;verticalAlign=middle;resizable=0;points=[];;autosize=1;" parent="1" vertex="1">
          <mxGeometry x="386" y="766" width="30" height="20" as="geometry"/>
        </mxCell>
        <mxCell id="rAfZPr0wQPsl_4nHrJfM-91" value="1..1" style="text;html=1;align=center;verticalAlign=middle;resizable=0;points=[];;autosize=1;" parent="1" vertex="1">
          <mxGeometry x="452" y="767" width="40" height="20" as="geometry"/>
        </mxCell>
        <mxCell id="rAfZPr0wQPsl_4nHrJfM-92" value="Access" style="text;html=1;align=center;verticalAlign=middle;resizable=0;points=[];;autosize=1;rotation=90;" parent="1" vertex="1">
          <mxGeometry x="660" y="641" width="50" height="20" as="geometry"/>
        </mxCell>
        <mxCell id="rAfZPr0wQPsl_4nHrJfM-96" value="1..*" style="text;html=1;align=center;verticalAlign=middle;resizable=0;points=[];;autosize=1;" parent="1" vertex="1">
          <mxGeometry x="670" y="549.5" width="30" height="20" as="geometry"/>
        </mxCell>
        <mxCell id="rAfZPr0wQPsl_4nHrJfM-97" value="0..*" style="text;html=1;align=center;verticalAlign=middle;resizable=0;points=[];;autosize=1;" parent="1" vertex="1">
          <mxGeometry x="634" y="792" width="30" height="20" as="geometry"/>
        </mxCell>
        <mxCell id="rAfZPr0wQPsl_4nHrJfM-116" style="edgeStyle=orthogonalEdgeStyle;rounded=0;orthogonalLoop=1;jettySize=auto;html=1;exitX=0;exitY=0.25;exitDx=0;exitDy=0;entryX=1;entryY=0.25;entryDx=0;entryDy=0;endArrow=none;endFill=0;" parent="1" source="rAfZPr0wQPsl_4nHrJfM-117" target="rAfZPr0wQPsl_4nHrJfM-66" edge="1">
          <mxGeometry relative="1" as="geometry"/>
        </mxCell>
        <mxCell id="rAfZPr0wQPsl_4nHrJfM-139" style="edgeStyle=orthogonalEdgeStyle;rounded=0;orthogonalLoop=1;jettySize=auto;html=1;dashed=1;endArrow=none;endFill=0;entryX=0.5;entryY=1;entryDx=0;entryDy=0;" parent="1" source="rAfZPr0wQPsl_4nHrJfM-102" target="rAfZPr0wQPsl_4nHrJfM-138" edge="1">
          <mxGeometry relative="1" as="geometry">
            <mxPoint x="898" y="360" as="targetPoint"/>
          </mxGeometry>
        </mxCell>
        <mxCell id="rAfZPr0wQPsl_4nHrJfM-102" value="Prescription" style="swimlane;fontStyle=0;childLayout=stackLayout;horizontal=1;startSize=26;fillColor=none;horizontalStack=0;resizeParent=1;resizeParentMax=0;resizeLast=0;collapsible=1;marginBottom=0;" parent="1" vertex="1">
          <mxGeometry x="828" y="559.5" width="140" height="52" as="geometry"/>
        </mxCell>
        <mxCell id="rAfZPr0wQPsl_4nHrJfM-108" value="1..1" style="text;html=1;align=center;verticalAlign=middle;resizable=0;points=[];;autosize=1;" parent="1" vertex="1">
          <mxGeometry x="870" y="535.5" width="40" height="20" as="geometry"/>
        </mxCell>
        <mxCell id="rAfZPr0wQPsl_4nHrJfM-112" style="edgeStyle=orthogonalEdgeStyle;rounded=0;orthogonalLoop=1;jettySize=auto;html=1;exitX=0.5;exitY=0;exitDx=0;exitDy=0;entryX=0.75;entryY=1;entryDx=0;entryDy=0;endArrow=none;endFill=0;" parent="1" source="rAfZPr0wQPsl_4nHrJfM-109" target="rAfZPr0wQPsl_4nHrJfM-102" edge="1">
          <mxGeometry relative="1" as="geometry"/>
        </mxCell>
        <mxCell id="rAfZPr0wQPsl_4nHrJfM-109" value="Medicine" style="swimlane;fontStyle=0;childLayout=stackLayout;horizontal=1;startSize=26;fillColor=none;horizontalStack=0;resizeParent=1;resizeParentMax=0;resizeLast=0;collapsible=1;marginBottom=0;" parent="1" vertex="1">
          <mxGeometry x="845" y="711" width="140" height="78" as="geometry"/>
        </mxCell>
        <mxCell id="rAfZPr0wQPsl_4nHrJfM-110" value="name" style="text;strokeColor=none;fillColor=none;align=left;verticalAlign=top;spacingLeft=4;spacingRight=4;overflow=hidden;rotatable=0;points=[[0,0.5],[1,0.5]];portConstraint=eastwest;" parent="rAfZPr0wQPsl_4nHrJfM-109" vertex="1">
          <mxGeometry y="26" width="140" height="26" as="geometry"/>
        </mxCell>
        <mxCell id="rAfZPr0wQPsl_4nHrJfM-111" value="product no" style="text;strokeColor=none;fillColor=none;align=left;verticalAlign=top;spacingLeft=4;spacingRight=4;overflow=hidden;rotatable=0;points=[[0,0.5],[1,0.5]];portConstraint=eastwest;" parent="rAfZPr0wQPsl_4nHrJfM-109" vertex="1">
          <mxGeometry y="52" width="140" height="26" as="geometry"/>
        </mxCell>
        <mxCell id="rAfZPr0wQPsl_4nHrJfM-113" value="1..*" style="text;html=1;align=center;verticalAlign=middle;resizable=0;points=[];;autosize=1;" parent="1" vertex="1">
          <mxGeometry x="920" y="685" width="30" height="20" as="geometry"/>
        </mxCell>
        <mxCell id="rAfZPr0wQPsl_4nHrJfM-114" value="1..1" style="text;html=1;align=center;verticalAlign=middle;resizable=0;points=[];;autosize=1;" parent="1" vertex="1">
          <mxGeometry x="930" y="621" width="40" height="20" as="geometry"/>
        </mxCell>
        <mxCell id="rAfZPr0wQPsl_4nHrJfM-115" value="Is Part of" style="text;html=1;align=center;verticalAlign=middle;resizable=0;points=[];;autosize=1;" parent="1" vertex="1">
          <mxGeometry x="895" y="659" width="60" height="20" as="geometry"/>
        </mxCell>
        <mxCell id="rAfZPr0wQPsl_4nHrJfM-117" value="Recorded" style="text;html=1;align=center;verticalAlign=middle;resizable=0;points=[];;autosize=1;" parent="1" vertex="1">
          <mxGeometry x="728" y="512" width="70" height="20" as="geometry"/>
        </mxCell>
        <mxCell id="rAfZPr0wQPsl_4nHrJfM-118" style="edgeStyle=orthogonalEdgeStyle;rounded=0;orthogonalLoop=1;jettySize=auto;html=1;exitX=0;exitY=0.25;exitDx=0;exitDy=0;entryX=1;entryY=0.25;entryDx=0;entryDy=0;endArrow=none;endFill=0;" parent="1" edge="1">
          <mxGeometry relative="1" as="geometry">
            <mxPoint x="828.5294117647059" y="573" as="sourcePoint"/>
            <mxPoint x="790.8823529411766" y="520.0588235294117" as="targetPoint"/>
          </mxGeometry>
        </mxCell>
        <mxCell id="rAfZPr0wQPsl_4nHrJfM-120" value="1..1" style="text;html=1;align=center;verticalAlign=middle;resizable=0;points=[];;autosize=1;" parent="1" vertex="1">
          <mxGeometry x="710" y="492" width="40" height="20" as="geometry"/>
        </mxCell>
        <mxCell id="rAfZPr0wQPsl_4nHrJfM-121" value="1..*" style="text;html=1;align=center;verticalAlign=middle;resizable=0;points=[];;autosize=1;" parent="1" vertex="1">
          <mxGeometry x="798" y="535.5" width="30" height="20" as="geometry"/>
        </mxCell>
        <mxCell id="rAfZPr0wQPsl_4nHrJfM-123" value="Belongs to" style="edgeStyle=orthogonalEdgeStyle;rounded=0;orthogonalLoop=1;jettySize=auto;html=1;entryX=0;entryY=0.5;entryDx=0;entryDy=0;endArrow=none;endFill=0;" parent="1" source="rAfZPr0wQPsl_4nHrJfM-29" target="rAfZPr0wQPsl_4nHrJfM-66" edge="1">
          <mxGeometry relative="1" as="geometry">
            <Array as="points">
              <mxPoint x="510" y="556"/>
              <mxPoint x="510" y="516"/>
            </Array>
          </mxGeometry>
        </mxCell>
        <mxCell id="rAfZPr0wQPsl_4nHrJfM-124" value="1..1" style="text;html=1;align=center;verticalAlign=middle;resizable=0;points=[];;autosize=1;" parent="1" vertex="1">
          <mxGeometry x="530" y="521.5" width="40" height="20" as="geometry"/>
        </mxCell>
        <mxCell id="rAfZPr0wQPsl_4nHrJfM-127" value="1..1" style="text;html=1;align=center;verticalAlign=middle;resizable=0;points=[];;autosize=1;" parent="1" vertex="1">
          <mxGeometry x="431" y="529.5" width="40" height="20" as="geometry"/>
        </mxCell>
        <mxCell id="rAfZPr0wQPsl_4nHrJfM-128" style="edgeStyle=orthogonalEdgeStyle;rounded=0;orthogonalLoop=1;jettySize=auto;html=1;entryX=1;entryY=0.25;entryDx=0;entryDy=0;endArrow=none;endFill=0;exitX=0.357;exitY=0.923;exitDx=0;exitDy=0;exitPerimeter=0;" parent="1" source="rAfZPr0wQPsl_4nHrJfM-20" target="rAfZPr0wQPsl_4nHrJfM-46" edge="1">
          <mxGeometry relative="1" as="geometry">
            <mxPoint x="697" y="224.23529411764707" as="sourcePoint"/>
            <mxPoint x="511.58823529411757" y="679.5294117647059" as="targetPoint"/>
            <Array as="points">
              <mxPoint x="730" y="255"/>
              <mxPoint x="720" y="255"/>
              <mxPoint x="720" y="682"/>
            </Array>
          </mxGeometry>
        </mxCell>
        <mxCell id="rAfZPr0wQPsl_4nHrJfM-133" value="Fowarded" style="text;html=1;align=center;verticalAlign=middle;resizable=0;points=[];;labelBackgroundColor=#ffffff;rotation=90;" parent="rAfZPr0wQPsl_4nHrJfM-128" vertex="1" connectable="0">
          <mxGeometry x="-0.634" y="35" relative="1" as="geometry">
            <mxPoint x="-21" y="-9" as="offset"/>
          </mxGeometry>
        </mxCell>
        <mxCell id="rAfZPr0wQPsl_4nHrJfM-129" value="1..1" style="text;html=1;align=center;verticalAlign=middle;resizable=0;points=[];;autosize=1;" parent="1" vertex="1">
          <mxGeometry x="635" y="226" width="40" height="20" as="geometry"/>
        </mxCell>
        <mxCell id="rAfZPr0wQPsl_4nHrJfM-132" value="0..*" style="text;html=1;align=center;verticalAlign=middle;resizable=0;points=[];;autosize=1;" parent="1" vertex="1">
          <mxGeometry x="514" y="659" width="30" height="20" as="geometry"/>
        </mxCell>
        <mxCell id="rAfZPr0wQPsl_4nHrJfM-138" value="Describe Medicin" style="swimlane;fontStyle=0;childLayout=stackLayout;horizontal=1;startSize=26;fillColor=none;horizontalStack=0;resizeParent=1;resizeParentMax=0;resizeLast=0;collapsible=1;marginBottom=0;" parent="1" vertex="1">
          <mxGeometry x="840" y="368" width="140" height="52" as="geometry"/>
        </mxCell>
        <mxCell id="rAfZPr0wQPsl_4nHrJfM-140" value="0..*" style="text;html=1;align=center;verticalAlign=middle;resizable=0;points=[];;autosize=1;" parent="1" vertex="1">
          <mxGeometry x="915" y="425" width="30" height="20" as="geometry"/>
        </mxCell>
        <mxCell id="rAfZPr0wQPsl_4nHrJfM-141" style="edgeStyle=orthogonalEdgeStyle;rounded=0;orthogonalLoop=1;jettySize=auto;html=1;entryX=0.5;entryY=0;entryDx=0;entryDy=0;dashed=1;endArrow=none;endFill=0;" parent="1" source="rAfZPr0wQPsl_4nHrJfM-20" target="rAfZPr0wQPsl_4nHrJfM-138" edge="1">
          <mxGeometry relative="1" as="geometry"/>
        </mxCell>
        <mxCell id="rAfZPr0wQPsl_4nHrJfM-143" value="1..1" style="text;html=1;align=center;verticalAlign=middle;resizable=0;points=[];;labelBackgroundColor=#ffffff;" parent="rAfZPr0wQPsl_4nHrJfM-141" vertex="1" connectable="0">
          <mxGeometry x="-0.7451" y="15" relative="1" as="geometry">
            <mxPoint as="offset"/>
          </mxGeometry>
        </mxCell>
        <mxCell id="rAfZPr0wQPsl_4nHrJfM-144" value="0..*" style="text;html=1;align=center;verticalAlign=middle;resizable=0;points=[];;autosize=1;" parent="1" vertex="1">
          <mxGeometry x="920" y="343" width="30" height="20" as="geometry"/>
        </mxCell>
        <mxCell id="Vde1K8oFt7oSUmfAw2t9-1" value="" style="triangle;whiteSpace=wrap;html=1;fillColor=#000000;rotation=-175;" vertex="1" parent="1">
          <mxGeometry x="216" y="41" width="16" height="12" as="geometry"/>
        </mxCell>
        <mxCell id="Vde1K8oFt7oSUmfAw2t9-2" value="" style="triangle;whiteSpace=wrap;html=1;fillColor=#000000;rotation=-175;" vertex="1" parent="1">
          <mxGeometry x="734" y="537.5" width="16" height="12" as="geometry"/>
        </mxCell>
        <mxCell id="Vde1K8oFt7oSUmfAw2t9-3" value="" style="triangle;whiteSpace=wrap;html=1;fillColor=#000000;rotation=90;" vertex="1" parent="1">
          <mxGeometry x="343" y="320" width="16" height="12" as="geometry"/>
        </mxCell>
        <mxCell id="Vde1K8oFt7oSUmfAw2t9-6" value="" style="triangle;whiteSpace=wrap;html=1;fillColor=#000000;rotation=-90;" vertex="1" parent="1">
          <mxGeometry x="677" y="605.5" width="16" height="12" as="geometry"/>
        </mxCell>
        <mxCell id="Vde1K8oFt7oSUmfAw2t9-7" value="" style="triangle;whiteSpace=wrap;html=1;fillColor=#000000;rotation=-90;" vertex="1" parent="1">
          <mxGeometry x="909" y="649" width="16" height="12" as="geometry"/>
        </mxCell>
        <mxCell id="Vde1K8oFt7oSUmfAw2t9-8" value="" style="triangle;whiteSpace=wrap;html=1;fillColor=#000000;rotation=-90;" vertex="1" parent="1">
          <mxGeometry x="726" y="294" width="16" height="12" as="geometry"/>
        </mxCell>
        <mxCell id="Vde1K8oFt7oSUmfAw2t9-17" value="" style="triangle;whiteSpace=wrap;html=1;fillColor=#000000;rotation=90;" vertex="1" parent="1">
          <mxGeometry x="604" y="376" width="16" height="12" as="geometry"/>
        </mxCell>
        <mxCell id="Vde1K8oFt7oSUmfAw2t9-18" value="" style="triangle;whiteSpace=wrap;html=1;fillColor=#000000;rotation=90;" vertex="1" parent="1">
          <mxGeometry x="528" y="440.5" width="16" height="12" as="geometry"/>
        </mxCell>
        <mxCell id="Vde1K8oFt7oSUmfAw2t9-19" value="" style="triangle;whiteSpace=wrap;html=1;fillColor=#000000;rotation=90;" vertex="1" parent="1">
          <mxGeometry x="471" y="470" width="16" height="12" as="geometry"/>
        </mxCell>
        <mxCell id="Vde1K8oFt7oSUmfAw2t9-20" value="" style="triangle;whiteSpace=wrap;html=1;fillColor=#000000;rotation=-175;" vertex="1" parent="1">
          <mxGeometry x="481" y="563.5" width="16" height="12" as="geometry"/>
        </mxCell>
        <mxCell id="Vde1K8oFt7oSUmfAw2t9-22" value="" style="triangle;whiteSpace=wrap;html=1;fillColor=#000000;rotation=-90;" vertex="1" parent="1">
          <mxGeometry x="604" y="574" width="16" height="12" as="geometry"/>
        </mxCell>
        <mxCell id="Vde1K8oFt7oSUmfAw2t9-23" value="" style="triangle;whiteSpace=wrap;html=1;fillColor=#000000;rotation=90;" vertex="1" parent="1">
          <mxGeometry x="343" y="461" width="16" height="12" as="geometry"/>
        </mxCell>
        <mxCell id="Vde1K8oFt7oSUmfAw2t9-24" value="Attends" style="text;html=1;align=center;verticalAlign=middle;resizable=0;points=[];;autosize=1;" vertex="1" parent="1">
          <mxGeometry x="177" y="659" width="60" height="20" as="geometry"/>
        </mxCell>
        <mxCell id="Vde1K8oFt7oSUmfAw2t9-25" value="writes" style="text;html=1;align=center;verticalAlign=middle;resizable=0;points=[];;autosize=1;" vertex="1" parent="1">
          <mxGeometry x="110" y="754" width="50" height="20" as="geometry"/>
        </mxCell>
        <mxCell id="Vde1K8oFt7oSUmfAw2t9-29" value="" style="triangle;whiteSpace=wrap;html=1;fillColor=#000000;rotation=0;" vertex="1" parent="1">
          <mxGeometry x="233" y="663" width="16" height="12" as="geometry"/>
        </mxCell>
        <mxCell id="Vde1K8oFt7oSUmfAw2t9-30" value="" style="triangle;whiteSpace=wrap;html=1;fillColor=#000000;rotation=0;" vertex="1" parent="1">
          <mxGeometry x="158" y="758" width="16" height="12" as="geometry"/>
        </mxCell>
      </root>
    </mxGraphModel>
  </diagram>
</mxfile>
